<svg width="400" height="500" xmlns="http://www.w3.org/2000/svg">
  <rect width="400" height="500" fill="#fefbeb" stroke="#92400e" stroke-width="2"/>
  
  <!-- Header with centered name -->
  <rect x="40" y="40" width="320" height="25" fill="#92400e"/>
  <rect x="50" y="48" width="300" height="9" fill="#ffffff"/>
  <rect x="40" y="80" width="320" height="8" fill="#a16207"/>
  <rect x="40" y="95" width="280" height="6" fill="#a16207"/>
  
  <!-- Education section -->
  <rect x="40" y="130" width="100" height="12" fill="#92400e"/>
  <line x1="40" y1="155" x2="360" y2="155" stroke="#92400e" stroke-width="2"/>
  <rect x="40" y="170" width="300" height="8" fill="#d1d5db"/>
  <rect x="60" y="185" width="280" height="6" fill="#e5e7eb"/>
  <rect x="60" y="200" width="250" height="6" fill="#e5e7eb"/>
  
  <!-- Publications section -->
  <rect x="40" y="235" width="120" height="12" fill="#92400e"/>
  <line x1="40" y1="260" x2="360" y2="260" stroke="#92400e" stroke-width="2"/>
  <rect x="40" y="275" width="320" height="6" fill="#d1d5db"/>
  <rect x="40" y="290" width="300" height="6" fill="#d1d5db"/>
  <rect x="40" y="305" width="280" height="6" fill="#d1d5db"/>
  <rect x="60" y="320" width="290" height="5" fill="#e5e7eb"/>
  
  <!-- Research section -->
  <rect x="40" y="355" width="100" height="12" fill="#92400e"/>
  <line x1="40" y1="380" x2="360" y2="380" stroke="#92400e" stroke-width="2"/>
  <rect x="40" y="395" width="280" height="6" fill="#d1d5db"/>
  <rect x="40" y="410" width="300" height="6" fill="#d1d5db"/>
  
  <!-- Awards section -->
  <rect x="40" y="440" width="80" height="12" fill="#92400e"/>
  <rect x="40" y="460" width="200" height="6" fill="#d1d5db"/>
  
  <text x="200" y="490" text-anchor="middle" font-family="Times, serif" font-size="12" fill="#92400e">Academic Scholar</text>
</svg>