<svg width="400" height="500" xmlns="http://www.w3.org/2000/svg">
  <rect width="400" height="500" fill="#eff6ff" stroke="#1e40af" stroke-width="3"/>
  
  <!-- Header with blue background -->
  <rect x="0" y="0" width="400" height="120" fill="#1e40af"/>
  <rect x="40" y="30" width="250" height="25" fill="#ffffff"/>
  <rect x="40" y="65" width="200" height="10" fill="#bfdbfe"/>
  <rect x="40" y="85" width="180" height="8" fill="#bfdbfe"/>
  
  <!-- Content sections -->
  <rect x="40" y="150" width="120" height="15" fill="#1e40af"/>
  <rect x="40" y="180" width="320" height="8" fill="#d1d5db"/>
  <rect x="40" y="195" width="300" height="8" fill="#d1d5db"/>
  <rect x="40" y="210" width="280" height="8" fill="#d1d5db"/>
  
  <rect x="40" y="250" width="140" height="15" fill="#1e40af"/>
  <rect x="40" y="280" width="300" height="10" fill="#d1d5db"/>
  <rect x="40" y="300" width="320" height="8" fill="#d1d5db"/>
  <rect x="40" y="315" width="250" height="8" fill="#d1d5db"/>
  
  <!-- Two column layout -->
  <rect x="40" y="360" width="100" height="12" fill="#1e40af"/>
  <rect x="220" y="360" width="100" height="12" fill="#1e40af"/>
  <rect x="40" y="380" width="150" height="6" fill="#d1d5db"/>
  <rect x="220" y="380" width="140" height="6" fill="#d1d5db"/>
  <rect x="40" y="395" width="140" height="6" fill="#d1d5db"/>
  <rect x="220" y="395" width="130" height="6" fill="#d1d5db"/>
  
  <text x="200" y="480" text-anchor="middle" font-family="Arial" font-size="12" fill="#1e40af" font-weight="bold">Executive</text>
</svg>