<svg width="400" height="500" xmlns="http://www.w3.org/2000/svg">
  <rect width="400" height="500" fill="#ffffff" stroke="#e5e5e5" stroke-width="2"/>
  
  <!-- Header -->
  <rect x="40" y="40" width="200" height="20" fill="#000000"/>
  <rect x="40" y="70" width="150" height="8" fill="#525252"/>
  
  <!-- Section 1 -->
  <rect x="40" y="120" width="80" height="12" fill="#000000"/>
  <line x1="40" y1="145" x2="360" y2="145" stroke="#000000" stroke-width="1"/>
  <rect x="40" y="155" width="320" height="6" fill="#e5e5e5"/>
  <rect x="40" y="170" width="280" height="6" fill="#e5e5e5"/>
  
  <!-- Section 2 -->
  <rect x="40" y="220" width="100" height="12" fill="#000000"/>
  <line x1="40" y1="245" x2="360" y2="245" stroke="#000000" stroke-width="1"/>
  <rect x="40" y="255" width="300" height="6" fill="#e5e5e5"/>
  <rect x="40" y="270" width="320" height="6" fill="#e5e5e5"/>
  <rect x="40" y="285" width="250" height="6" fill="#e5e5e5"/>
  
  <!-- Section 3 -->
  <rect x="40" y="330" width="70" height="12" fill="#000000"/>
  <line x1="40" y1="355" x2="360" y2="355" stroke="#000000" stroke-width="1"/>
  <rect x="40" y="365" width="200" height="6" fill="#e5e5e5"/>
  
  <text x="200" y="480" text-anchor="middle" font-family="Arial" font-size="12" fill="#525252">Minimalist</text>
</svg>