<svg width="400" height="500" xmlns="http://www.w3.org/2000/svg">
  <rect width="400" height="500" fill="#ecfdf5" stroke="#059669" stroke-width="2"/>
  
  <!-- Header -->
  <rect x="20" y="20" width="360" height="80" fill="#047857"/>
  <rect x="40" y="40" width="200" height="20" fill="#ffffff"/>
  <rect x="40" y="70" width="150" height="8" fill="#6ee7b7"/>
  
  <!-- Skills sidebar -->
  <rect x="20" y="120" width="120" height="350" fill="#f0fdf4"/>
  <rect x="30" y="140" width="80" height="12" fill="#059669"/>
  <rect x="30" y="165" width="90" height="6" fill="#10b981"/>
  <rect x="30" y="180" width="85" height="6" fill="#10b981"/>
  <rect x="30" y="195" width="95" height="6" fill="#10b981"/>
  
  <rect x="30" y="230" width="90" height="12" fill="#059669"/>
  <rect x="30" y="255" width="80" height="6" fill="#10b981"/>
  <rect x="30" y="270" width="85" height="6" fill="#10b981"/>
  
  <!-- Main content -->
  <rect x="160" y="140" width="120" height="15" fill="#047857"/>
  <rect x="160" y="170" width="200" height="8" fill="#d1d5db"/>
  <rect x="160" y="185" width="180" height="8" fill="#d1d5db"/>
  <rect x="160" y="200" width="190" height="8" fill="#d1d5db"/>
  
  <rect x="160" y="240" width="100" height="15" fill="#047857"/>
  <rect x="160" y="270" width="180" height="8" fill="#d1d5db"/>
  <rect x="160" y="285" width="170" height="8" fill="#d1d5db"/>
  
  <!-- Code blocks -->
  <rect x="160" y="320" width="200" height="30" fill="#1f2937" stroke="#059669" stroke-width="1"/>
  <rect x="170" y="330" width="60" height="4" fill="#10b981"/>
  <rect x="170" y="340" width="80" height="4" fill="#6ee7b7"/>
  
  <text x="200" y="480" text-anchor="middle" font-family="monospace" font-size="12" fill="#047857">Tech Specialist</text>
</svg>